<?xml version="1.0" encoding="UTF-8"?>
<svg version="1.1" xmlns="http://www.w3.org/2000/svg" width="512" height="512">
<path d="M0 0 C24.81484343 26.13759628 34.73047756 58.52516639 33.88183594 94.05810547 C32.65394071 122.62258673 19.05801226 148.68708685 -0.25 169.125 C-0.94738281 169.88683594 -1.64476562 170.64867187 -2.36328125 171.43359375 C-7.13370439 176.46564887 -12.22157686 180.42285829 -17.99707031 184.20727539 C-21.1425575 186.16972261 -21.1425575 186.16972261 -23.25 189.125 C-22.68410156 189.37121094 -22.11820313 189.61742187 -21.53515625 189.87109375 C-18.85751742 191.34036224 -16.91956388 193.10252435 -14.6875 195.1875 C-11.12703072 198.45518473 -7.5106708 201.58979193 -3.75 204.625 C-0.1552235 207.5331338 3.33260628 210.51041332 6.75 213.625 C11.08196142 217.57189818 15.56665284 221.2863449 20.12109375 224.97265625 C23.74150687 227.93676863 27.2570741 231.01239268 30.75 234.125 C33.38354706 231.71099817 35.18018459 229.08022372 37.0859375 226.06640625 C38.05370117 224.54370117 38.05370117 224.54370117 39.04101562 222.99023438 C40.07258789 221.35538086 40.07258789 221.35538086 41.125 219.6875 C42.21304541 217.97299673 43.30257824 216.25944537 44.39227295 214.54598999 C45.1270935 213.39050598 45.86150758 212.23476339 46.59552002 211.07876587 C49.77750046 206.07033115 53.0056208 201.09314804 56.25 196.125 C61.86639267 187.51226009 67.41281075 178.85572838 72.94921875 170.19140625 C77.12192502 163.66301031 81.31481141 157.14849894 85.53222656 150.64892578 C89.59036706 144.38749435 93.60737004 138.0999774 97.625 131.8125 C102.9838441 123.42736682 108.37657714 115.06594406 113.81152344 106.72998047 C118.89117118 98.92920451 123.90509643 91.08683236 128.91625977 83.24194336 C133.43712878 76.1670232 137.9814205 69.10799669 142.56494141 62.07348633 C144.78985611 58.67665202 144.78985611 58.67665202 146.75 55.125 C146.09 55.455 145.43 55.785 144.75 56.125 C130.96629408 58.26385092 117.79254489 59.02231188 105.875 51.25 C102.21694462 47.59194462 100.93969297 44.41069677 100.1875 39.3125 C100.52646941 33.7300976 102.8141804 30.01505426 106.75 26.125 C111.28012683 22.93154022 116.04070496 20.28794132 120.91455078 17.65771484 C124.10004942 15.93577921 127.26716253 14.18252748 130.43359375 12.42578125 C135.39501716 9.67515084 140.36326058 6.93725845 145.3359375 4.20703125 C152.03513943 0.52681857 158.7099103 -3.19582635 165.375 -6.9375 C173.75383504 -11.63744251 182.13514447 -16.33279523 190.52874756 -21.00631714 C192.25958911 -21.9705247 193.98942982 -22.93652817 195.71923828 -23.90258789 C209.51605436 -31.57875249 222.2281359 -38.21546051 238.390625 -34.22265625 C240.42809944 -33.28814534 242.00849656 -32.28320135 243.75 -30.875 C244.37132812 -30.37742187 244.99265625 -29.87984375 245.6328125 -29.3671875 C253.25449359 -22.51086351 256.30644452 -12.92854752 256.86062241 -2.86645126 C257.0456597 3.08386407 257.00469428 9.03589897 256.98046875 14.98828125 C256.97927275 16.94475779 256.97882467 18.90123491 256.9790802 20.85771179 C256.97751974 24.96043498 256.9692767 29.06307041 256.95581055 33.16577148 C256.93903287 38.33369907 256.93511519 43.50152988 256.93557549 48.66948128 C256.93545826 61.15532032 256.87379772 73.63978163 256.75 86.125 C256.74285225 86.92335014 256.7357045 87.72170029 256.72834015 88.54424286 C256.68294308 93.37836921 256.59879563 98.2098863 256.48828125 103.04296875 C256.47492233 104.17978592 256.46156342 105.31660309 256.44779968 106.48786926 C256.21254704 114.2956352 254.89952549 120.12545191 249.125 125.625 C243.89718975 127.94847122 239.08118223 128.08189256 233.57421875 126.5 C221.76969757 121.36560632 217.56357185 109.12744993 212.75 98.125 C207.17067988 104.8336689 202.03508555 111.81074959 196.95019531 118.89624023 C192.94218202 124.48013668 188.89503211 130.03285708 184.8125 135.5625 C183.94117432 136.74283813 183.94117432 136.74283813 183.05224609 137.94702148 C181.87376198 139.54281076 180.69505086 141.13843242 179.51611328 142.73388672 C176.59043897 146.69491162 173.67049694 150.66015717 170.75 154.625 C169.5833611 156.20835379 168.41669442 157.79168712 167.25 159.375 C166.6725 160.15875 166.095 160.9425 165.5 161.75 C163.75 164.125 162 166.5 160.25 168.875 C159.67233887 169.6589917 159.09467773 170.4429834 158.49951172 171.25073242 C157.33456151 172.83168983 156.16952266 174.41258192 155.00439453 175.9934082 C152.0607302 179.98755828 149.11868654 183.9828843 146.1796875 187.98046875 C138.75845028 198.07071181 131.28515587 208.11952747 123.75 218.125 C124.41942627 218.00906494 125.08885254 217.89312988 125.77856445 217.77368164 C128.87245894 217.24049045 131.96745456 216.71396741 135.0625 216.1875 C136.11501953 216.00509766 137.16753906 215.82269531 138.25195312 215.63476562 C150.17858175 213.61641309 161.84242839 212.88722723 173.9375 212.875 C174.63465118 212.87399292 175.33180237 212.87298584 176.05007935 212.87194824 C201.39618622 212.89650877 230.96325874 214.94259559 252.19921875 230.33984375 C256.24363525 234.99550708 257.12524622 240.12385329 257.13095093 246.11451721 C257.1356309 246.78188383 257.14031087 247.44925044 257.14513266 248.13684028 C257.15701667 250.35388539 257.14765198 252.57030477 257.13818359 254.78735352 C257.14225221 256.38454547 257.14759572 257.98173462 257.15411377 259.57891846 C257.16775762 263.90321964 257.16250117 268.22730542 257.15297651 272.55161023 C257.14536603 277.08250322 257.15242926 281.61337812 257.15713501 286.14427185 C257.16258796 293.75108136 257.15541246 301.35780339 257.14111328 308.96459961 C257.12478178 317.75393763 257.13008074 326.54306692 257.1465925 335.3323999 C257.16021349 342.88588132 257.1621242 350.43929996 257.15427649 357.99278969 C257.1496041 362.50110828 257.14896329 367.00932881 257.15888596 371.51764107 C257.16756248 375.7555174 257.16152125 379.99312494 257.14420319 384.23097229 C257.14024225 385.78457124 257.14136567 387.33819288 257.14799118 388.89178276 C257.15621254 391.0156476 257.14587925 393.13865588 257.13095093 395.26246643 C257.12981985 396.44986199 257.12868877 397.63725756 257.12752342 398.8606348 C256.44763697 404.73946917 253.81385127 408.86487981 249.19921875 412.55078125 C216.31484669 433.68698849 165.54261508 431.52666298 128.78808594 423.86157227 C116.88376626 421.1634048 101.58345813 417.31230348 94.15504742 406.88647175 C92.53669786 403.70577726 92.36698031 401.68594715 92.35127258 398.13285828 C92.33246536 396.33033348 92.33246536 396.33033348 92.3132782 394.49139404 C92.31543083 392.52665131 92.31543083 392.52665131 92.31762695 390.5222168 C92.30860632 389.12247351 92.29827835 387.72273813 92.28674316 386.32301331 C92.25918214 382.53002101 92.24988992 378.73717864 92.24388909 374.94409919 C92.23450306 370.97754976 92.20829949 367.01111221 92.18388367 363.04463196 C92.14022126 355.5366356 92.11167273 348.02866097 92.08856028 340.5205763 C92.06150721 331.97158644 92.01759577 323.42270915 91.97227156 314.87379968 C91.87942901 297.29092441 91.80774651 279.70802483 91.75 262.125 C89.55727276 265.09147379 87.36638394 268.05930083 85.17578125 271.02734375 C84.56512817 271.8534314 83.9544751 272.67951904 83.32531738 273.53063965 C79.66408299 278.49332373 76.04790471 283.48433798 72.48176575 288.51582336 C56.36289039 311.18354431 56.36289039 311.18354431 45.75 314.125 C37.21704633 315.20376749 30.13950422 314.56401872 22.75 310.125 C21.58210938 309.44824219 21.58210938 309.44824219 20.390625 308.7578125 C11.96789883 303.62760656 4.07767229 297.65994437 -3.8828125 291.85107422 C-7.68551742 289.07826855 -11.49818846 286.31930881 -15.3125 283.5625 C-16.05193848 283.02778076 -16.79137695 282.49306152 -17.55322266 281.94213867 C-23.44203604 277.6911073 -29.37019957 273.49769166 -35.31054688 269.3190918 C-41.00052998 265.31300326 -46.64098203 261.24393328 -52.25 257.125 C-56.71046705 258.68563622 -59.03754643 262.27129873 -61.8125 265.875 C-62.3391626 266.5460376 -62.8658252 267.2170752 -63.40844727 267.90844727 C-65.02902431 269.97547764 -66.63989427 272.049808 -68.25 274.125 C-70.05941139 276.43992736 -71.87338295 278.75125953 -73.6875 281.0625 C-74.1316626 281.63000977 -74.5758252 282.19751953 -75.03344727 282.78222656 C-78.55497608 287.27159485 -82.14314465 291.7040183 -85.75 296.125 C-91.67456428 303.38840947 -97.48269627 310.73643372 -103.25 318.125 C-109.556178 326.20392496 -115.93123391 334.21711903 -122.40917969 342.15917969 C-127.77513186 348.74799573 -133.02161655 355.42685136 -138.25 362.125 C-144.55680529 370.20472859 -150.93183066 378.21929089 -157.41137695 386.16137695 C-160.92145971 390.4705537 -164.38757541 394.81037929 -167.8125 399.1875 C-171.7366415 404.19816068 -175.66700026 409.20351052 -179.625 414.1875 C-180.11299072 414.8069751 -180.60098145 415.4264502 -181.10375977 416.06469727 C-189.61177022 426.74982201 -189.61177022 426.74982201 -195.25 428.125 C-199.08349126 428.0451356 -200.93563774 427.33685283 -204.125 425.1875 C-207.14891852 420.82949978 -207.03750199 417.29955945 -206.25 412.125 C-204.75608419 408.28590876 -202.71405303 404.87960094 -200.5625 401.375 C-199.97525146 400.37911865 -199.38800293 399.3832373 -198.78295898 398.35717773 C-196.95706636 395.2683862 -195.10383258 392.19707954 -193.25 389.125 C-192.15860285 387.27902903 -191.06995574 385.43142873 -189.984375 383.58203125 C-187.8494358 379.94734408 -185.70471077 376.31877833 -183.55078125 372.6953125 C-180.17054264 367.00175129 -176.83172102 361.28455363 -173.5 355.5625 C-168.32582456 346.67965864 -163.13778006 337.80507492 -157.9375 328.9375 C-157.40562576 328.03046326 -157.40562576 328.03046326 -156.86300659 327.10510254 C-153.96125395 322.15667256 -151.05883186 317.20863534 -148.15637207 312.26062012 C-145.62476856 307.94476349 -143.09342603 303.62875396 -140.5625 299.3125 C-140.02971939 298.40390732 -140.02971939 298.40390732 -139.48617554 297.47695923 C-134.73038772 289.36569062 -129.9848569 281.24850897 -125.25 273.125 C-112.00526202 250.40557609 -98.68124114 227.73466616 -85.25 205.125 C-86.08547363 205.13877686 -86.92094727 205.15255371 -87.78173828 205.16674805 C-94.35209146 205.22924676 -100.65467851 205.09822092 -107.125 203.9375 C-107.88256592 203.80512939 -108.64013184 203.67275879 -109.4206543 203.53637695 C-121.73630139 201.24128775 -133.04156597 196.62526021 -144.25 191.125 C-141.88826703 201.17790283 -138.70248606 208.68961235 -129.98828125 214.6796875 C-128.62027338 215.50982513 -127.2312311 216.30712838 -125.81640625 217.0546875 C-124.25 218.125 -124.25 218.125 -123.25 221.125 C-125.72969059 223.8408516 -127.60207761 224.93745659 -131.34375 225.36328125 C-141.21852658 225.6678604 -149.60409904 222.57999848 -157.18359375 216.234375 C-167.46084964 205.74341435 -172.3576159 190.43812743 -173.4921875 176.0546875 C-174.2453393 167.49614437 -178.03163857 162.96162443 -183.3671875 156.6171875 C-201.78198699 134.6959587 -208.97982096 103.58496547 -206.97851562 75.43994141 C-203.92192564 42.73597233 -188.88463528 13.78043238 -164.25 -7.875 C-115.40713 -48.32081499 -45.13061136 -43.042072 0 0 Z " fill="#7637C6" transform="translate(231.25,59.875)"/>
<path d="M0 0 C24.81484343 26.13759628 34.73047756 58.52516639 33.88183594 94.05810547 C32.65390117 122.62350637 19.05741287 148.68577327 -0.25 169.125 C-0.93578125 169.87523437 -1.6215625 170.62546875 -2.328125 171.3984375 C-8.58570408 178.00365986 -15.76514628 183.02507833 -23.25 188.125 C-26.85797468 186.56434118 -29.43246004 184.33222895 -32.375 181.75 C-38.68643974 176.53108645 -45.67483607 172.17572565 -54.17578125 172.67578125 C-61.56208163 174.27545082 -66.91540001 178.02251659 -71.25 184.125 C-73.42217533 187.51154663 -75.46877645 190.96500386 -77.5 194.4375 C-78.56652864 196.24678966 -79.63417567 198.0554207 -80.703125 199.86328125 C-81.16879883 200.65774658 -81.63447266 201.45221191 -82.11425781 202.27075195 C-83.25 204.125 -83.25 204.125 -84.25 205.125 C-105.42682071 206.82700105 -125.47116209 200.34024761 -144.25 191.125 C-141.88826703 201.17790283 -138.70248606 208.68961235 -129.98828125 214.6796875 C-128.62027338 215.50982513 -127.2312311 216.30712838 -125.81640625 217.0546875 C-124.25 218.125 -124.25 218.125 -123.25 221.125 C-125.72969059 223.8408516 -127.60207761 224.93745659 -131.34375 225.36328125 C-141.21852658 225.6678604 -149.60409904 222.57999848 -157.18359375 216.234375 C-167.46084964 205.74341435 -172.3576159 190.43812743 -173.4921875 176.0546875 C-174.2453393 167.49614437 -178.03163857 162.96162443 -183.3671875 156.6171875 C-201.78198699 134.6959587 -208.97982096 103.58496547 -206.97851562 75.43994141 C-203.92192564 42.73597233 -188.88463528 13.78043238 -164.25 -7.875 C-115.40713 -48.32081499 -45.13061136 -43.042072 0 0 Z " fill="#FEC417" transform="translate(231.25,59.875)"/>
<path d="M0 0 C0.69715118 -0.00100708 1.39430237 -0.00201416 2.11257935 -0.00305176 C27.45868622 0.02150877 57.02575874 2.06759559 78.26171875 17.46484375 C82.30613525 22.12050708 83.18774622 27.24885329 83.19345093 33.23951721 C83.20047089 34.24056713 83.20047089 34.24056713 83.20763266 35.26184028 C83.21951667 37.47888539 83.21015198 39.69530477 83.20068359 41.91235352 C83.20475221 43.50954547 83.21009572 45.10673462 83.21661377 46.70391846 C83.23025762 51.02821964 83.22500117 55.35230542 83.21547651 59.67661023 C83.20786603 64.20750322 83.21492926 68.73837812 83.21963501 73.26927185 C83.22508796 80.87608136 83.21791246 88.48280339 83.20361328 96.08959961 C83.18728178 104.87893763 83.19258074 113.66806692 83.2090925 122.4573999 C83.22271349 130.01088132 83.2246242 137.56429996 83.21677649 145.11778969 C83.2121041 149.62610828 83.21146329 154.13432881 83.22138596 158.64264107 C83.23006248 162.8805174 83.22402125 167.11812494 83.20670319 171.35597229 C83.20274225 172.90957124 83.20386567 174.46319288 83.21049118 176.01678276 C83.21871254 178.1406476 83.20837925 180.26365588 83.19345093 182.38746643 C83.19231985 183.57486199 83.19118877 184.76225756 83.19002342 185.9856348 C82.51013697 191.86446917 79.87635127 195.98987981 75.26171875 199.67578125 C42.37734669 220.81198849 -8.39488492 218.65166298 -45.14941406 210.98657227 C-57.09973295 208.27797888 -72.21650047 204.42306552 -79.78314304 194.06589413 C-81.5024011 190.61858778 -81.56746763 188.23313046 -81.57518005 184.38710022 C-81.58056559 183.7091918 -81.58595113 183.03128338 -81.59149987 182.33283228 C-81.60577288 180.06813744 -81.59867769 177.80402767 -81.59155273 175.53930664 C-81.59725667 173.91285228 -81.60422102 172.28640193 -81.61235046 170.65995789 C-81.63029454 166.24671099 -81.62911115 161.83366279 -81.62340808 157.42039037 C-81.62031801 153.73494867 -81.62640666 150.04954523 -81.63244683 146.36410898 C-81.64649456 137.66922063 -81.64492872 128.97443052 -81.63354492 120.27954102 C-81.62206334 111.31183947 -81.63613943 102.34443698 -81.6629414 93.37677485 C-81.68509827 85.67471176 -81.69173581 77.97274255 -81.68586498 70.27064985 C-81.68249418 65.67171947 -81.68491864 61.07298079 -81.70211601 56.47407722 C-81.7175829 52.14917091 -81.71363263 47.8247076 -81.69481087 43.4998188 C-81.69112425 41.91396672 -81.69423563 40.32808184 -81.70469666 38.74225998 C-81.71790434 36.5742912 -81.70636344 34.40778953 -81.68870544 32.23988342 C-81.68849616 31.02776719 -81.68828688 29.81565096 -81.68807125 28.56680393 C-80.87861519 23.20331765 -77.92874669 19.37580478 -73.625 16.1875 C-52.97063478 1.59225668 -24.43970186 0.02470675 0 0 Z " fill="#FEAC17" transform="translate(405.1875,272.75)"/>
<path d="M0 0 C1.31022125 -0.00855011 1.31022125 -0.00855011 2.64691162 -0.01727295 C4.49246023 -0.02667456 6.33802526 -0.03323755 8.18359375 -0.03710938 C10.93521682 -0.0467036 13.6860552 -0.07772646 16.4375 -0.109375 C37.12084017 -0.23341911 63.47099275 1.25558831 80.734375 14.203125 C84.98491195 18.56851033 86.36095781 20.90250481 86.41308594 27.18310547 C86.42506012 27.85388123 86.4370343 28.52465698 86.44937134 29.21575928 C86.48139008 31.41787449 86.47675916 33.61800487 86.46875 35.8203125 C86.47720753 37.36199617 86.48684996 38.90367376 86.49761963 40.44534302 C86.51398328 43.67163604 86.51132842 46.89724255 86.49609375 50.12353516 C86.47882465 54.24211421 86.51592743 58.35814002 86.56835556 62.47634697 C86.6015675 65.65938723 86.60201579 68.84182142 86.59320831 72.02499771 C86.59356641 73.54236152 86.60474741 75.05976545 86.62731171 76.57696152 C86.79878962 89.87216848 86.79878962 89.87216848 82.36816406 95.07373047 C62.83202489 113.62505846 25.20766391 111.97306686 0.18408203 111.32861328 C-18.51358864 110.64845739 -45.53550183 108.27142855 -59.265625 94.203125 C-62.13284531 90.2220753 -62.6438176 87.437193 -62.65380859 82.56445312 C-62.65906555 81.91826523 -62.66432251 81.27207733 -62.66973877 80.60630798 C-62.6828829 78.48208039 -62.67422131 76.35860948 -62.6640625 74.234375 C-62.66608486 72.75134132 -62.66899765 71.26830861 -62.67276001 69.78527832 C-62.67717577 66.68178816 -62.67077669 63.57855757 -62.65673828 60.47509766 C-62.63964654 56.50381049 -62.64949178 52.53313163 -62.66745567 48.56186676 C-62.67831393 45.50086919 -62.67483787 42.44001503 -62.6670723 39.37901306 C-62.66507592 37.91503324 -62.66750978 36.45104025 -62.67451096 34.98707581 C-62.68215947 32.93830038 -62.67047549 30.89049997 -62.65380859 28.84179688 C-62.65142181 27.67773315 -62.64903503 26.51366943 -62.64657593 25.31433105 C-61.96815829 19.77373014 -58.84818594 16.15204123 -54.63671875 12.74609375 C-39.29678013 2.76376137 -17.93594373 0.0935665 0 0 Z " fill="#CF1531" transform="translate(185.265625,376.796875)"/>
<path d="M0 0 C0.69715118 -0.00100708 1.39430237 -0.00201416 2.11257935 -0.00305176 C26.45965199 0.0205407 58.54016874 1.39477877 78.31640625 17.68359375 C80.93797444 20.4283688 81.88390151 22.53560604 82.8125 26.25 C81.99775524 31.24031165 79.34385023 34.74683156 75.8125 38.25 C73.41510023 39.80972009 71.23836077 41.08683169 68.6875 42.3125 C67.99011719 42.65047607 67.29273438 42.98845215 66.57421875 43.33666992 C30.62486035 59.99506177 -22.20478989 59.19651559 -59.1875 46.25 C-67.36072219 43.14184591 -75.89040281 39.28973023 -80.1875 31.25 C-81.30056239 27.59579517 -80.94465089 24.93050563 -79.38671875 21.47265625 C-71.73861986 10.48629922 -52.82291149 5.59563879 -40.54296875 3.3828125 C-27.02510403 1.10181349 -13.71895888 0.01386886 0 0 Z " fill="#FEC518" transform="translate(405.1875,272.75)"/>
<path d="M0 0 C1.31022125 -0.00855011 1.31022125 -0.00855011 2.64691162 -0.01727295 C4.49246023 -0.02667456 6.33802526 -0.03323755 8.18359375 -0.03710938 C10.93521682 -0.0467036 13.6860552 -0.07772646 16.4375 -0.109375 C37.82392521 -0.23763572 65.22237188 1.38441473 82.51171875 15.671875 C84.88473342 18.14349139 85.745098 20.25137848 86.484375 23.578125 C85.37545582 28.93790106 82.94311186 31.77740895 78.734375 35.203125 C58.48842205 47.55953754 34.07832291 48.34955319 11.109375 48.453125 C10.37687531 48.4585733 9.64437561 48.46402161 8.88967896 48.46963501 C-5.23044633 48.54769698 -19.40418256 47.74152997 -33.078125 43.953125 C-33.86654785 43.73986572 -34.6549707 43.52660645 -35.46728516 43.30688477 C-44.95597369 40.6131526 -54.76894196 36.74903408 -61.140625 28.890625 C-62.77508791 24.98607472 -62.63413755 23.24023703 -61.265625 19.203125 C-50.56025441 5.32380032 -29.74309542 3.00204174 -13.55541992 0.66821289 C-9.03414762 0.11696168 -4.55087621 0.02374057 0 0 Z " fill="#FE4B3D" transform="translate(185.265625,376.796875)"/>
<path d="M0 0 C0.825 -0.020625 1.65 -0.04125 2.5 -0.0625 C7.98709804 -0.09733872 11.73367546 0.745009 16.625 3.25 C17.5949478 12.76857975 17.90443903 22.27084346 18.12768555 31.82910156 C18.18690649 34.34973823 18.25219968 36.87016196 18.31835938 39.390625 C18.59453982 50.34564918 18.67704037 61.29178411 18.625 72.25 C19.70692627 72.27505615 20.78885254 72.3001123 21.90356445 72.32592773 C26.01707754 72.42193898 30.13049509 72.52164072 34.24389648 72.62231445 C36.00559211 72.66494771 37.76731051 72.70665248 39.52905273 72.74731445 C48.99746031 72.96650308 58.45872734 73.24376862 67.91796875 73.72265625 C68.67709061 73.75975204 69.43621246 73.79684784 70.21833801 73.83506775 C83.52384003 74.55170344 83.52384003 74.55170344 87.1875 76.875 C88.625 79.25 88.625 79.25 88.5625 82.8125 C87.31688797 87.37974412 87.31688797 87.37974412 84.625 89.25 C81.48713779 89.63031673 81.48713779 89.63031673 77.53358459 89.63768005 C76.4436646 89.64575836 76.4436646 89.64575836 75.33172601 89.65399987 C72.89033197 89.66833855 70.44947562 89.66116141 68.00805664 89.65405273 C66.26042747 89.65975324 64.51280203 89.66671625 62.7651825 89.67485046 C58.01312357 89.69283263 53.26124877 89.69160399 48.509166 89.68590808 C44.54528034 89.68282344 40.58143042 89.6889006 36.61754984 89.69494683 C27.26787098 89.70900712 17.91828346 89.70741833 8.56860352 89.69604492 C-1.08414097 89.68456248 -10.73660767 89.69863808 -20.38931555 89.7254414 C-28.67049398 89.74757724 -36.95158508 89.75424055 -45.23279101 89.74836498 C-50.18156207 89.74498909 -55.13015504 89.74745229 -60.07890129 89.76461601 C-64.73207466 89.78004937 -69.38483562 89.77616992 -74.03799248 89.75731087 C-75.74723734 89.75361492 -77.45651251 89.75676264 -79.16572952 89.76719666 C-81.49649956 89.78034025 -83.82589094 89.76891974 -86.15660095 89.75120544 C-87.46165053 89.75099616 -88.76670012 89.75078688 -90.11129665 89.75057125 C-93.375 89.25 -93.375 89.25 -95.79489994 87.40617466 C-97.375 85.25 -97.375 85.25 -97.875 82.25 C-97.23385308 78.40311847 -96.5321218 77.5409982 -93.375 75.25 C-90.09729661 74.50233931 -86.82023308 74.36343969 -83.46875 74.203125 C-82.48338257 74.1420607 -81.49801514 74.0809964 -80.48278809 74.01808167 C-77.28097743 73.8258895 -74.07847032 73.66196953 -70.875 73.5 C-68.6887625 73.37659453 -66.50256442 73.25248864 -64.31640625 73.12768555 C-48.66201731 72.26808562 -33.05255166 71.83732147 -17.375 72.25 C-17.53508545 71.38213867 -17.6951709 70.51427734 -17.86010742 69.62011719 C-18.71862596 63.56134536 -18.57827735 57.4350764 -18.61328125 51.328125 C-18.61735678 50.66530266 -18.6214323 50.00248032 -18.62563133 49.31957245 C-18.64636946 45.82128728 -18.6607321 42.32304008 -18.67016602 38.82470703 C-18.68129795 35.21417995 -18.71580853 31.60425774 -18.75533772 27.99394608 C-18.78143387 25.21100701 -18.78985075 22.42821516 -18.79344749 19.64516449 C-18.80068498 17.66693861 -18.82713148 15.68881326 -18.85383606 13.71075439 C-18.85091049 12.51230896 -18.84798492 11.31386353 -18.8449707 10.07910156 C-18.85083694 9.02321838 -18.85670319 7.96733521 -18.86274719 6.87945557 C-18.375 4.25 -18.375 4.25 -16.48088074 2.42767334 C-11.41812866 -0.40357348 -5.6506173 0.03498834 0 0 Z " fill="#7738C6" transform="translate(148.375,103.75)"/>
<path d="M0 0 C0.64179199 0.35263916 1.28358398 0.70527832 1.94482422 1.06860352 C27.87182065 15.30664116 27.87182065 15.30664116 55 27 C56.08796875 27.433125 57.1759375 27.86625 58.296875 28.3125 C78.46622759 36.03282635 99.66852243 39.35021565 121 42 C119.76966257 45.2287997 118.41116567 48.19903955 116.65234375 51.171875 C116.21212891 51.91824219 115.77191406 52.66460937 115.31835938 53.43359375 C114.86267578 54.19800781 114.40699219 54.96242187 113.9375 55.75 C113.24817383 56.91982422 113.24817383 56.91982422 112.54492188 58.11328125 C109.14457289 63.85542711 109.14457289 63.85542711 108 65 C86.82317929 66.70200105 66.77883791 60.21524761 48 51 C50.36173297 61.05290283 53.54751394 68.56461235 62.26171875 74.5546875 C63.62972662 75.38482513 65.0187689 76.18212838 66.43359375 76.9296875 C68 78 68 78 69 81 C66.52030941 83.7158516 64.64792239 84.81245659 60.90625 85.23828125 C51.03147342 85.5428604 42.64590096 82.45499848 35.06640625 76.109375 C24.78915036 65.61841435 19.8923841 50.31312743 18.7578125 35.9296875 C17.93688277 26.60094059 13.15605743 21.51604676 7.33154297 14.64111328 C3.9163264 10.4318933 0 5.54409265 0 0 Z " fill="#FEAC17" transform="translate(39,200)"/>
<path d="M0 0 C1.3931543 -0.0309375 1.3931543 -0.0309375 2.81445312 -0.0625 C12.93900099 -0.12014867 12.93900099 -0.12014867 16.5625 3.25 C17.00473022 5.65869141 17.00473022 5.65869141 17.19287109 8.6171875 C17.2626265 9.69792542 17.3323819 10.77866333 17.4042511 11.89215088 C17.6511584 17.13122344 17.79667748 22.36526545 17.87890625 27.609375 C17.89968735 28.75625793 17.92046844 29.90314087 17.94187927 31.08477783 C17.98484641 33.50163586 18.02592149 35.9185282 18.06518555 38.33544922 C18.12416738 41.94898919 18.18949261 45.56237019 18.25585938 49.17578125 C18.52129009 64.20170255 18.62195701 79.22188173 18.5625 94.25 C16.33479929 94.26547014 14.10709856 94.28088129 11.87939453 94.29586792 C10.19952289 94.30792706 8.51967244 94.32306667 6.83984375 94.34008789 C-1.27736034 94.36634345 -9.34424481 93.81294835 -17.4375 93.25 C-18.23233736 72.9879892 -18.58689692 52.72473467 -18.66967773 32.44754028 C-18.68157906 29.93666642 -18.69868625 27.42581194 -18.72094727 24.91500854 C-18.75073097 21.3585821 -18.7608483 17.8026305 -18.765625 14.24609375 C-18.77793152 13.16428833 -18.79023804 12.08248291 -18.80291748 10.96789551 C-18.79995667 9.97874146 -18.79699585 8.9895874 -18.79394531 7.97045898 C-18.79759094 7.10339828 -18.80123657 6.23633759 -18.80499268 5.34300232 C-18.68372009 4.65231155 -18.56244751 3.96162079 -18.4375 3.25 C-12.79377742 -0.51248172 -6.57153027 0.03633189 0 0 Z " fill="#FEFEFD" transform="translate(207.4375,83.75)"/>
<path d="M0 0 C0.825 -0.020625 1.65 -0.04125 2.5 -0.0625 C7.98709804 -0.09733872 11.73367546 0.745009 16.625 3.25 C17.5949478 12.76857975 17.90443903 22.27084346 18.12768555 31.82910156 C18.18690649 34.34973823 18.25219968 36.87016196 18.31835938 39.390625 C18.35973863 41.0546785 18.400765 42.71874081 18.44140625 44.3828125 C18.46014297 45.1053421 18.4788797 45.8278717 18.4981842 46.57229614 C18.69231561 55.1351501 18.625 63.6775651 18.625 72.25 C6.745 72.25 -5.135 72.25 -17.375 72.25 C-18.0431374 67.57303817 -18.50885566 63.54511123 -18.55200195 58.90332031 C-18.56483719 57.69226624 -18.57767242 56.48121216 -18.59089661 55.23345947 C-18.59828354 53.9446991 -18.60567047 52.65593872 -18.61328125 51.328125 C-18.61735678 50.66530266 -18.6214323 50.00248032 -18.62563133 49.31957245 C-18.64636946 45.82128728 -18.6607321 42.32304008 -18.67016602 38.82470703 C-18.68129795 35.21417995 -18.71580853 31.60425774 -18.75533772 27.99394608 C-18.78143387 25.21100701 -18.78985075 22.42821516 -18.79344749 19.64516449 C-18.80068498 17.66693861 -18.82713148 15.68881326 -18.85383606 13.71075439 C-18.85091049 12.51230896 -18.84798492 11.31386353 -18.8449707 10.07910156 C-18.85083694 9.02321838 -18.85670319 7.96733521 -18.86274719 6.87945557 C-18.375 4.25 -18.375 4.25 -16.48088074 2.42767334 C-11.41812866 -0.40357348 -5.6506173 0.03498834 0 0 Z " fill="#7839C4" transform="translate(148.375,103.75)"/>
<path d="M0 0 C2.60330441 5.71961376 5.18251131 11.44964658 7.74536133 17.1875 C8.61974658 19.1375655 9.49958972 21.0851934 10.38500977 23.03027344 C11.65788546 25.82902763 12.91077821 28.63600458 14.16015625 31.4453125 C14.55904556 32.31116974 14.95793488 33.17702698 15.36891174 34.06912231 C17.42108222 38.73995096 18.72206787 41.93664146 17 47 C15.89941406 48.95605469 15.89941406 48.95605469 14.515625 50.671875 C13.99863037 51.32760498 13.48163574 51.98333496 12.94897461 52.65893555 C12.38831299 53.34898682 11.82765137 54.03903809 11.25 54.75 C10.06681007 56.24956858 8.88589336 57.75093304 7.70703125 59.25390625 C7.09682129 60.02879395 6.48661133 60.80368164 5.85791016 61.60205078 C2.78971273 65.56208167 -0.13926228 69.61987445 -3.0625 73.6875 C-3.5977832 74.4290332 -4.13306641 75.17056641 -4.68457031 75.93457031 C-6.9548915 79.09283935 -9.18689031 82.25925976 -11.30859375 85.51953125 C-11.86675781 86.33808594 -12.42492187 87.15664062 -13 88 C-13.33 88 -13.66 88 -14 88 C-13.59904487 82.54489991 -13.09644002 77.22585075 -11.9375 71.875 C-8.56251261 54.11190848 -10.8402317 34.42002628 -20.85546875 19.17578125 C-25.27327768 13.41763907 -30.42332191 8.62141379 -36 4 C-32.92804676 1.95203118 -31.8199142 1.67753681 -28.28125 1.3671875 C-27.34796875 1.28339844 -26.4146875 1.19960937 -25.453125 1.11328125 C-23.99132812 0.99533203 -23.99132812 0.99533203 -22.5 0.875 C-21.55640625 0.78863281 -20.6128125 0.70226562 -19.640625 0.61328125 C-13.07758923 0.04842981 -6.58473169 -0.03858455 0 0 Z " fill="#181D8F" transform="translate(425,111)"/>
<path d="M0 0 C0.78117187 -0.020625 1.56234375 -0.04125 2.3671875 -0.0625 C7.26915498 -0.09550988 10.8959775 0.27208124 15 3.25 C17.40312136 7.97192268 17.42430573 13.04504925 17.625 18.25 C17.68192017 19.49390503 17.68192017 19.49390503 17.73999023 20.76293945 C18.04392477 27.92711063 18.10527187 35.07981573 18 42.25 C13.33698859 43.37100678 8.70832174 43.58321053 3.9375 43.8125 C3.09856201 43.8549585 2.25962402 43.89741699 1.39526367 43.94116211 C-5.07398696 44.24975387 -11.52381744 44.34192186 -18 44.25 C-18.98448047 36.45629265 -19.24844595 28.69484913 -19.29516602 20.84301758 C-19.30682988 19.47670252 -19.32750097 18.11043781 -19.35668945 16.74438477 C-19.39914815 14.74787721 -19.41289791 12.75082367 -19.42578125 10.75390625 C-19.44036377 9.57642822 -19.45494629 8.3989502 -19.4699707 7.18579102 C-19 4.25 -19 4.25 -17.14135742 2.38549805 C-11.92930044 -0.3783005 -5.7649152 0.03805225 0 0 Z " fill="#FE4C3C" transform="translate(90,133.75)"/>
<path d="M0 0 C1.29357422 0.74443359 1.29357422 0.74443359 2.61328125 1.50390625 C17.82502399 10.05230415 33.86783249 15.75176811 51 19 C51.75877441 19.14953125 52.51754883 19.2990625 53.29931641 19.453125 C80.76324069 24.68972285 108.56397266 22.01978779 136 18 C136 18.66 136 19.32 136 20 C118.0659374 27.76937986 99.7617921 29.23354002 80.375 29.25 C79.65478668 29.25067474 78.93457336 29.25134949 78.1925354 29.25204468 C52.09184722 29.21352844 24.89874905 26.45279128 1.640625 13.70703125 C0 12 0 12 -0.390625 9.08203125 C-0.34421875 8.00308594 -0.2978125 6.92414063 -0.25 5.8125 C-0.21390625 4.72582031 -0.1778125 3.63914062 -0.140625 2.51953125 C-0.09421875 1.68808594 -0.0478125 0.85664063 0 0 Z " fill="#FFC316" transform="translate(324,378)"/>
<path d="M0 0 C3.61697996 1.44679198 6.97320162 2.97895883 10.41723633 4.7668457 C46.43948702 23.41135322 89.36148219 25.00263168 128.83227539 18.27539062 C131.24045753 17.96945195 133.57501403 17.95529489 136 18 C133.31155125 21.46668391 129.65839871 22.34941898 125.625 23.5625 C124.98433594 23.77068359 124.34367187 23.97886719 123.68359375 24.19335938 C109.44699981 28.58550006 95.00052768 28.40114851 80.25 28.375 C78.61043335 28.37468277 78.61043335 28.37468277 76.93774414 28.37435913 C60.9618793 28.34343337 45.57998828 27.86661248 30 24 C29.19884766 23.81276367 28.39769531 23.62552734 27.57226562 23.43261719 C17.51410144 21.03209078 8.85592381 17.3443575 0 12 C0 8.04 0 4.08 0 0 Z " fill="#FFC316" transform="translate(324,334)"/>
<path d="M0 0 C3.56936408 1.42774563 6.83163683 2.92898395 10.21240234 4.71582031 C30.48437428 15.33041526 53.13989108 21.09201469 76.01953125 21.203125 C76.95818527 21.20882507 77.89683929 21.21452515 78.86393738 21.22039795 C80.84474583 21.22979379 82.82556953 21.23636021 84.80639648 21.24023438 C87.76640917 21.24985027 90.72569918 21.28088878 93.68554688 21.3125 C105.00683428 21.37348978 115.79660965 20.60229576 126.9519043 18.64746094 C130.00738329 18.11738027 132.88829909 17.85165646 136 18 C133.31155125 21.46668391 129.65839871 22.34941898 125.625 23.5625 C124.98433594 23.77068359 124.34367187 23.97886719 123.68359375 24.19335938 C110.33656997 28.3110582 96.96639568 28.34383471 83.12792969 28.31567383 C79.90264638 28.31252697 76.67829469 28.33599313 73.453125 28.36132812 C48.47435356 28.43751323 21.69727496 25.31423691 0 12 C0 8.04 0 4.08 0 0 Z " fill="#FFC317" transform="translate(324,429)"/>
<path d="M0 0 C3.94046528 1.57618611 7.45632799 3.2707403 11.1875 5.25 C16.74512487 8.10517617 22.38392021 10.34599497 28.3125 12.3125 C29.04041748 12.55452148 29.76833496 12.79654297 30.51831055 13.04589844 C45.97765437 18.00716347 61.54468574 19.35685421 77.6875 19.25 C78.47692993 19.2478952 79.26635986 19.24579041 80.07971191 19.24362183 C91.83069779 19.20686093 103.35916904 18.69658919 115 17 C117.66556448 16.65726805 120.33268908 16.32896835 123 16 C115.21001326 24.93184147 96.96901397 25.19037069 86 26 C68.80941487 26.82649289 51.89926958 26.35010667 35 23 C34.22849609 22.85014648 33.45699219 22.70029297 32.66210938 22.54589844 C21.09599245 20.23561809 10.44527259 16.51278275 0 11 C0 7.37 0 3.74 0 0 Z " fill="#FC483C" transform="translate(123,432)"/>
<path d="M0 0 C1.875 1.16796875 1.875 1.16796875 3.33203125 2.76171875 C5.37947732 4.62774555 6.832206 4.65762136 9.5625 4.85546875 C10.37074219 4.92121094 11.17898438 4.98695313 12.01171875 5.0546875 C12.62660156 5.09207031 13.24148438 5.12945312 13.875 5.16796875 C13.875 6.48796875 13.875 7.80796875 13.875 9.16796875 C10.91835481 10.64629135 8.13270263 10.22829658 4.875 10.16796875 C4.49601562 11.08835937 4.49601562 11.08835937 4.109375 12.02734375 C2.04474604 15.60777625 -1.33154943 16.81918633 -5.125 18.16796875 C-8.625 18.41796875 -8.625 18.41796875 -11.125 18.16796875 C-11.785 16.84796875 -12.445 15.52796875 -13.125 14.16796875 C-9.165 11.69296875 -9.165 11.69296875 -5.125 9.16796875 C-5.6989739 4.96616691 -5.6989739 4.96616691 -9.125 3.16796875 C-14.64056413 2.09176111 -18.12193692 4.60446316 -22.6171875 7.44921875 C-24.86305921 8.98844547 -26.99328604 10.60140626 -29.125 12.29296875 C-35.88372031 17.43989003 -42.84875892 19.87367534 -51.3671875 19.5703125 C-55.86587062 18.91398904 -61.80160232 17.49136643 -65.125 14.16796875 C-66.80683948 13.93509867 -68.4962416 13.75532709 -70.1875 13.60546875 C-71.10660156 13.52167969 -72.02570313 13.43789063 -72.97265625 13.3515625 C-74.03806641 13.26068359 -74.03806641 13.26068359 -75.125 13.16796875 C-75.6875 11.23046875 -75.6875 11.23046875 -76.125 9.16796875 C-75.125 8.16796875 -75.125 8.16796875 -71.875 7.91796875 C-67.35209409 7.01338757 -66.20522456 5.48513366 -63.125 2.16796875 C-58.24623345 -0.97612525 -54.75219476 -1.12309305 -49.125 -0.83203125 C-48.795 0.48796875 -48.465 1.80796875 -48.125 3.16796875 C-52.085 5.14796875 -52.085 5.14796875 -56.125 7.16796875 C-56.125 8.48796875 -56.125 9.80796875 -56.125 11.16796875 C-52.02689395 13.21702177 -47.55024027 12.95517795 -43.125 12.16796875 C-40.07267976 10.44764599 -37.49017741 8.47254052 -34.765625 6.2734375 C-24.23738651 -2.12111952 -12.66213042 -6.07502948 0 0 Z " fill="#FFFCF4" transform="translate(436.125,288.83203125)"/>
<path d="M0 0 C1.546875 0.99 1.546875 0.99 3.125 2 C3.125 2.66 3.125 3.32 3.125 4 C5.043125 3.9690625 5.043125 3.9690625 7 3.9375 C10.875 3.875 10.875 3.875 13.125 5 C13.125 5.99 13.125 6.98 13.125 8 C10.16835481 9.4783226 7.38270263 9.06032783 4.125 9 C3.91875 9.598125 3.7125 10.19625 3.5 10.8125 C1.53576615 13.93741749 -0.44865272 14.70703876 -3.875 16 C-7.75 16.1875 -7.75 16.1875 -10.875 16 C-10.875 14.68 -10.875 13.36 -10.875 12 C-7.875 9.75 -7.875 9.75 -4.875 8 C-5.36205712 5.93597032 -5.36205712 5.93597032 -6.875 4 C-10.28170272 2.81808273 -12.64518165 2.51953333 -16.0546875 3.8515625 C-19.9585525 5.94533093 -23.45349113 8.39927542 -26.9375 11.125 C-33.73219697 16.32488644 -40.34670418 18.01027504 -48.875 17 C-56.8510479 15.0239521 -56.8510479 15.0239521 -58.875 13 C-60.38969448 12.76807135 -61.91254562 12.58784762 -63.4375 12.4375 C-64.26378906 12.35371094 -65.09007812 12.26992188 -65.94140625 12.18359375 C-66.57949219 12.12300781 -67.21757812 12.06242187 -67.875 12 C-68.205 10.68 -68.535 9.36 -68.875 8 C-67.0496875 7.38125 -67.0496875 7.38125 -65.1875 6.75 C-61.4842031 5.37187717 -58.88282898 3.59007495 -55.875 1 C-52.28282425 -1.39478383 -49.11800022 -1.16319232 -44.875 -1 C-44.545 0.32 -44.215 1.64 -43.875 3 C-47.835 4.98 -47.835 4.98 -51.875 7 C-51.545 7.99 -51.215 8.98 -50.875 10 C-47.39820954 11.73839523 -43.67683873 11.45337089 -39.875 11 C-36.79543703 9.47648077 -36.79543703 9.47648077 -33.875 7 C-32.19587603 5.78005394 -30.50763664 4.57259654 -28.8125 3.375 C-27.99652344 2.78460938 -27.18054688 2.19421875 -26.33984375 1.5859375 C-18.69177044 -3.33500983 -8.22751185 -4.1505516 0 0 Z " fill="#FFF6F5" transform="translate(224.875,391)"/>
<path d="M0 0 C0 5.94 0 11.88 0 18 C-11.88 18 -23.76 18 -36 18 C-36 12.72 -36 7.44 -36 2 C-31.68778999 1.66249649 -27.37529529 1.32986755 -23.0625 1 C-21.85013672 0.90460938 -20.63777344 0.80921875 -19.38867188 0.7109375 C-17.60493164 0.57558594 -17.60493164 0.57558594 -15.78515625 0.4375 C-14.70113525 0.35371094 -13.61711426 0.26992187 -12.50024414 0.18359375 C-8.33876726 -0.03468278 -4.16719744 0 0 0 Z " fill="#1B1E90" transform="translate(167,158)"/>
<path d="M0 0 C1.47583955 0.0001591 2.95168467 0.00585225 4.42749023 0.01586914 C5.20293686 0.01728409 5.97838348 0.01869904 6.77732849 0.02015686 C9.26361893 0.02577194 11.74982059 0.03832693 14.23608398 0.05102539 C15.91772331 0.05603845 17.59936405 0.06060169 19.28100586 0.06469727 C23.41189965 0.07574626 27.54272674 0.09302094 31.67358398 0.11352539 C31.67358398 4.40352539 31.67358398 8.69352539 31.67358398 13.11352539 C28.73396913 13.84842911 26.49784719 14.27519055 23.54858398 14.42993164 C22.76459229 14.47190674 21.98060059 14.51388184 21.17285156 14.55712891 C20.34809326 14.59636475 19.52333496 14.63560059 18.67358398 14.67602539 C17.83013428 14.71848389 16.98668457 14.76094238 16.11767578 14.8046875 C9.63368016 15.11232911 3.16486224 15.23013518 -3.32641602 15.11352539 C-3.52032331 12.80155384 -3.70637968 10.48892249 -3.88891602 8.17602539 C-4.04553711 6.24436523 -4.04553711 6.24436523 -4.20532227 4.27368164 C-4.2452832 3.23083008 -4.28524414 2.18797852 -4.32641602 1.11352539 C-3.32641602 0.11352539 -3.32641602 0.11352539 0 0 Z " fill="#CF1632" transform="translate(75.326416015625,162.886474609375)"/>
<path d="M0 0 C-1.08000025 3.24000075 -1.49783862 3.6336358 -4.16015625 5.48046875 C-4.78857422 5.92197266 -5.41699219 6.36347656 -6.06445312 6.81835938 C-7.05348633 7.49608398 -7.05348633 7.49608398 -8.0625 8.1875 C-8.72572266 8.65091797 -9.38894531 9.11433594 -10.07226562 9.59179688 C-11.71007505 10.73472863 -13.35442897 11.8682718 -15 13 C-18.93011332 11.16309921 -21.76156791 8.87042844 -25 6 C-25 5.67 -25 5.34 -25 5 C-21.39704301 4.16137685 -17.79244935 3.33001323 -14.1875 2.5 C-12.65125977 2.14228516 -12.65125977 2.14228516 -11.08398438 1.77734375 C-10.10107422 1.55175781 -9.11816406 1.32617188 -8.10546875 1.09375 C-7.19949951 0.88427734 -6.29353027 0.67480469 -5.36010742 0.45898438 C-3 0 -3 0 0 0 Z " fill="#FDAC19" transform="translate(223,235)"/>
</svg>
